<?xml version="1.0" standalone="no"?>
<!DOCTYPE svg PUBLIC "-//W3C//DTD SVG 20010904//EN"
 "http://www.w3.org/TR/2001/REC-SVG-20010904/DTD/svg10.dtd">
<svg version="1.0" xmlns="http://www.w3.org/2000/svg"
 width="1280.000000pt" height="956.000000pt" viewBox="0 0 1280.000000 956.000000"
 preserveAspectRatio="xMidYMid meet">
<g transform="translate(0.000000,956.000000) scale(0.100000,-0.100000)"
fill="#000000" stroke="none">
<path d="M0 4780 l0 -4780 6400 0 6400 0 0 4780 0 4780 -2779 0 -2778 0 -28
-40 c-15 -22 -58 -68 -94 -103 -378 -356 -1035 -383 -1459 -60 -75 57 -155
141 -174 181 l-11 22 -2739 0 -2738 0 0 -4780z m1178 4259 c82 -40 82 -39 82
-406 l0 -321 -26 -32 c-50 -58 -59 -60 -339 -60 -276 0 -285 2 -335 55 l-25
27 -3 321 c-3 368 -2 372 78 414 41 22 53 23 283 23 225 0 243 -1 285 -21z
m1612 -2 c79 -41 80 -48 80 -397 0 -341 -2 -353 -69 -397 -33 -22 -40 -23
-293 -23 -239 0 -262 1 -298 20 -69 35 -70 39 -70 403 0 318 0 325 22 352 46
58 78 65 344 65 232 0 243 -1 284 -23z m1596 4 c23 -10 51 -32 62 -49 21 -29
22 -39 22 -354 0 -449 25 -420 -374 -416 -377 4 -356 -20 -356 410 0 308 3
333 43 377 43 47 66 50 322 50 213 1 245 -2 281 -18z m1611 -1 c25 -11 51 -33
63 -52 20 -32 20 -46 18 -360 l-3 -326 -25 -27 c-50 -53 -59 -55 -335 -55
-276 0 -285 2 -335 55 l-25 27 -3 321 c-3 332 0 357 38 392 42 38 87 44 330
44 211 1 239 -1 277 -19z m1584 9 c19 -7 45 -21 57 -33 51 -45 52 -54 52 -378
0 -338 -2 -351 -69 -395 -33 -22 -40 -23 -293 -23 -239 0 -262 1 -298 20 -69
35 -70 39 -70 403 0 318 0 325 22 352 45 58 79 65 334 65 147 0 243 -4 265
-11z m1625 -8 c22 -10 50 -31 62 -46 22 -27 22 -34 22 -354 0 -452 25 -423
-374 -419 -377 4 -356 -20 -356 410 0 308 3 333 43 377 43 47 66 50 322 50
213 1 245 -2 281 -18z m1611 -1 c25 -11 51 -33 63 -52 20 -32 20 -46 18 -360
l-3 -326 -25 -27 c-50 -53 -59 -55 -335 -55 -276 0 -285 2 -335 55 l-25 27 -3
326 c-2 314 -2 328 18 360 40 64 74 72 345 72 215 0 244 -2 282 -20z m1603 -2
c87 -45 85 -35 85 -403 0 -311 -1 -325 -21 -352 -43 -59 -64 -63 -342 -63
-386 0 -362 -28 -362 418 0 315 1 325 22 354 43 61 76 68 338 68 225 0 238 -1
280 -22z m-151 -968 c108 -18 189 -72 234 -155 l22 -40 0 -3070 0 -3070 -22
-41 c-27 -50 -81 -99 -142 -127 l-46 -22 -5915 0 -5915 0 -46 22 c-61 28 -115
77 -142 127 l-22 41 0 3070 0 3070 22 40 c43 80 127 138 225 154 78 13 11666
14 11747 1z m-11109 -6729 c19 -10 45 -33 58 -51 22 -32 22 -38 22 -350 0
-312 0 -318 -22 -350 -46 -66 -64 -70 -341 -70 -268 0 -290 4 -337 55 l-25 27
0 338 0 338 25 27 c47 51 65 54 335 55 225 0 254 -2 285 -19z m1609 0 c73 -38
72 -33 74 -399 2 -368 3 -363 -74 -403 -35 -17 -60 -19 -285 -19 -226 0 -251
2 -289 20 -75 36 -75 36 -75 400 0 363 0 363 75 400 37 18 60 20 288 20 226 0
251 -2 286 -19z m1594 5 c18 -7 45 -28 60 -45 l27 -33 0 -328 0 -328 -27 -33
c-47 -56 -67 -59 -340 -59 -238 0 -250 1 -288 23 -73 41 -75 51 -75 397 0 346
2 356 75 397 38 22 50 23 288 23 187 0 256 -3 280 -14z m1617 -5 c19 -10 45
-33 58 -51 22 -32 22 -38 22 -349 0 -358 -1 -361 -79 -401 -37 -18 -58 -20
-286 -20 -266 0 -288 4 -335 55 l-25 27 0 338 0 338 25 27 c47 51 65 54 335
55 225 0 254 -2 285 -19z m1609 0 c72 -37 71 -34 74 -387 3 -363 1 -376 -72
-413 -37 -20 -58 -21 -287 -21 -226 0 -251 2 -289 20 -75 36 -75 36 -75 400 0
363 0 363 75 400 37 18 60 20 288 20 226 0 251 -2 286 -19z m1594 5 c18 -7 45
-28 60 -45 l27 -33 0 -328 0 -328 -27 -33 c-47 -56 -67 -59 -340 -59 -238 0
-250 1 -288 23 -73 41 -75 51 -75 397 0 346 2 356 75 397 38 22 50 23 288 23
187 0 256 -3 280 -14z m1636 -15 c59 -42 61 -58 61 -393 0 -344 -2 -354 -75
-395 -38 -22 -50 -23 -288 -23 -268 0 -290 4 -337 55 l-25 27 -3 333 -3 333
28 32 c48 58 61 60 348 57 257 -2 260 -2 294 -26z m1588 10 c72 -33 73 -38 75
-398 2 -362 2 -365 -75 -402 -40 -20 -60 -21 -287 -21 -227 0 -247 1 -287 21
-77 37 -77 39 -75 402 2 358 2 360 74 396 40 20 58 21 288 21 219 0 249 -2
287 -19z"/>
</g>
</svg>
